<?xml version="1.0" encoding="UTF-8" standalone="no"?>
<!-- Created with Inkscape (http://www.inkscape.org/) -->

<svg
   xmlns:dc="http://purl.org/dc/elements/1.1/"
   xmlns:cc="http://creativecommons.org/ns#"
   xmlns:rdf="http://www.w3.org/1999/02/22-rdf-syntax-ns#"
   xmlns:svg="http://www.w3.org/2000/svg"
   xmlns="http://www.w3.org/2000/svg"
   xmlns:sodipodi="http://sodipodi.sourceforge.net/DTD/sodipodi-0.dtd"
   xmlns:inkscape="http://www.inkscape.org/namespaces/inkscape"
   width="320"
   height="480"
   id="svg2676"
   sodipodi:version="0.32"
   inkscape:version="0.48.3.1 r9886"
   version="1.0"
   sodipodi:docname="ico-96-xhdpi.png"
   inkscape:output_extension="org.inkscape.output.svg.inkscape">
  <defs
     id="defs2678">
    <inkscape:perspective
       sodipodi:type="inkscape:persp3d"
       inkscape:vp_x="0 : 526.18109 : 1"
       inkscape:vp_y="0 : 1000 : 0"
       inkscape:vp_z="744.09448 : 526.18109 : 1"
       inkscape:persp3d-origin="372.04724 : 350.78739 : 1"
       id="perspective2684" />
    <inkscape:perspective
       id="perspective2767"
       inkscape:persp3d-origin="372.04724 : 350.78739 : 1"
       inkscape:vp_z="744.09448 : 526.18109 : 1"
       inkscape:vp_y="0 : 1000 : 0"
       inkscape:vp_x="0 : 526.18109 : 1"
       sodipodi:type="inkscape:persp3d" />
  </defs>
  <sodipodi:namedview
     id="base"
     pagecolor="#000000"
     bordercolor="#666666"
     borderopacity="1.0"
     gridtolerance="10000"
     guidetolerance="10"
     objecttolerance="10"
     inkscape:pageopacity="0"
     inkscape:pageshadow="2"
     inkscape:zoom="0.86708984"
     inkscape:cx="20.897849"
     inkscape:cy="267.92207"
     inkscape:document-units="px"
     inkscape:current-layer="layer1"
     showgrid="false"
     inkscape:window-width="1364"
     inkscape:window-height="766"
     inkscape:window-x="0"
     inkscape:window-y="0"
     inkscape:window-maximized="0"
     fit-margin-top="0"
     fit-margin-left="0"
     fit-margin-right="0"
     fit-margin-bottom="0"
     inkscape:snap-page="true"
     showborder="true"
     inkscape:showpageshadow="false" />
  <metadata
     id="metadata2681">
    <rdf:RDF>
      <cc:Work
         rdf:about="">
        <dc:format>image/svg+xml</dc:format>
        <dc:type
           rdf:resource="http://purl.org/dc/dcmitype/StillImage" />
        <dc:title></dc:title>
      </cc:Work>
    </rdf:RDF>
  </metadata>
  <g
     inkscape:label="Layer 1"
     inkscape:groupmode="layer"
     id="layer1"
     transform="translate(-62.088943,-187.11299)">
    <rect
       style="fill:#d7eef4;stroke:#000000;stroke-width:0.81000000000000005;stroke-linecap:round;stroke-linejoin:round;stroke-miterlimit:4;stroke-dasharray:none;stroke-dashoffset:0"
       id="rect3281"
       width="320"
       height="480"
       x="0"
       y="0"
       transform="translate(62.088943,187.11299)" />
    <g
       id="g3310"
       transform="translate(1.0918879,14.897296)">
      <g
         transform="matrix(1.3725908,0,0,1.3725908,274.09132,-217.30552)"
         id="g3289">
        <path
           inkscape:connector-curvature="0"
           style="fill:#1399dd"
           d="m -61.760526,488.44011 c -1.626537,-0.50859 -2.767677,-1.85637 -3.344532,-3.95016 -0.317064,-1.15084 -0.429743,-4.17001 -0.228474,-6.12188 0.487227,-4.72505 2.430399,-11.65653 5.169767,-18.44105 0.274625,-0.68016 0.469184,-1.26678 0.432356,-1.30361 -0.03683,-0.0368 -1.103764,-0.22741 -2.370968,-0.42351 -17.774854,-2.75075 -26.888293,-7.95735 -24.043364,-13.73622 1.082958,-2.1998 4.315834,-4.43175 8.716928,-6.01808 1.308653,-0.47169 1.315684,-0.47679 1.630418,-1.18139 0.761961,-1.70583 2.535624,-2.19057 3.989606,-1.09036 0.428075,0.32392 0.525655,0.34249 1.124451,0.21399 2.984704,-0.6405 6.662866,-1.34267 8.581961,-1.63831 1.267204,-0.19521 2.332816,-0.38374 2.368027,-0.41895 0.03521,-0.0352 -0.32446,-1.05479 -0.799268,-2.26572 -2.552813,-6.51063 -4.344291,-13.03433 -4.800706,-17.48188 -0.193592,-1.88647 -0.09055,-4.96865 0.200929,-6.01007 0.960191,-3.43069 3.247698,-4.83759 6.52006,-4.01008 3.134424,0.79263 6.681073,3.28374 11.435225,8.03194 2.754292,2.75084 4.273842,4.44983 6.9201,7.73727 0.777853,0.96632 1.487519,1.75695 1.577037,1.75695 0.08952,0 0.68919,-0.66413 1.332602,-1.47584 4.632093,-5.84372 9.992162,-11.1754 13.856263,-13.78287 4.973299,-3.35595 8.90472,-3.2974 10.672046,0.15894 0.708381,1.38537 0.841487,2.23221 0.826899,5.26083 -0.01154,2.39647 -0.0692,3.12025 -0.390891,4.90683 l -0.377351,2.0957 0.33896,0.36404 c 0.516836,0.55506 0.654421,0.91185 0.654421,1.69705 0,1.11393 -0.5219,1.86624 -1.70725,2.46096 l -0.562371,0.28215 -0.958772,2.88141 c -0.527324,1.58477 -1.318618,3.79853 -1.758432,4.91947 -1.069343,2.7254 -1.027786,2.49819 -0.473773,2.59024 0.258965,0.043 1.514478,0.24236 2.790027,0.44296 11.4989954,1.80841 19.844267,4.95029 22.5408803,8.48632 2.7871487,3.65475 0.6527551,7.31964 -5.9972254,10.29762 -4.0277356,1.80369 -10.2355074,3.42072 -17.3718199,4.5251 -1.267204,0.1961 -2.332817,0.38536 -2.368028,0.42057 -0.03521,0.0352 0.324461,1.05479 0.799268,2.26572 2.552813,6.51063 4.344291,13.03433 4.800706,17.48188 0.193593,1.88646 0.09055,4.96864 -0.200928,6.01007 -0.962723,3.43973 -3.246253,4.83795 -6.540635,4.00488 -2.122024,-0.53662 -4.78542,-2.10265 -7.674217,-4.51231 l -1.54055,-1.28504 -0.731853,0.0914 c -0.96438,0.12049 -1.602542,-0.10429 -2.212346,-0.77927 -0.582897,-0.6452 -0.811507,-1.36438 -0.697681,-2.19483 l 0.08289,-0.60478 -1.534725,-1.72863 c -1.742112,-1.96222 -3.245045,-3.74383 -4.54108,-5.3831 -0.488956,-0.61844 -0.964606,-1.12445 -1.056999,-1.12445 -0.09239,0 -0.694419,0.66413 -1.337831,1.47585 -4.614721,5.8218 -9.9937,11.17644 -13.822969,13.7604 -3.047493,2.05643 -6.018674,2.93531 -7.916791,2.34181 z m 2.841448,-1.8397 c 4.038606,-1.03546 10.505552,-6.68376 17.134308,-14.9653 0.711595,-0.88902 1.438395,-1.81529 1.615114,-2.05838 l 0.321304,-0.44198 -1.580288,-2.21906 c -1.354176,-1.90154 -4.360913,-6.34888 -4.727634,-6.99276 -0.09217,-0.16182 -0.69346,-0.24299 -2.718632,-0.36701 -2.277128,-0.13944 -5.129465,-0.37602 -7.955926,-0.65988 l -0.857829,-0.0862 -0.721332,1.70799 c -2.53298,5.99764 -4.534545,13.01747 -5.090168,17.85211 -0.208191,1.81151 -0.103859,4.88083 0.19868,5.84492 0.70172,2.23614 2.066804,2.9792 4.382403,2.3855 z m 43.465375,-0.23982 c 0.713585,-0.47222 1.358832,-1.73872 1.592546,-3.12586 0.378337,-2.24552 -0.05419,-6.51241 -1.090337,-10.75628 -1.015032,-4.15737 -4.257878,-13.39123 -4.772185,-13.58859 -0.09868,-0.0379 -1.147859,0.0291 -2.331503,0.14885 -2.052979,0.20768 -4.33125,0.38573 -7.563501,0.59112 l -1.475842,0.0938 -1.474731,2.26011 c -0.811103,1.24306 -2.254911,3.35542 -3.208462,4.69412 l -1.733731,2.434 0.748726,1.01457 c 0.982225,1.33097 3.177209,3.97878 5.014438,6.04893 l 1.472181,1.65881 0.724017,-0.0905 c 1.68708,-0.21079 2.992443,1.02832 2.853125,2.70832 l -0.0627,0.75614 0.714977,0.64537 c 1.246133,1.12482 3.178307,2.56144 4.529256,3.36762 2.665621,1.59072 4.781108,1.98824 6.063731,1.13944 z m -21.793115,-20.73426 c 1.830861,-2.57878 3.833113,-5.54676 3.833113,-5.68191 0,-0.0638 -2.378655,-0.11604 -5.285902,-0.11604 -4.63592,0 -5.275974,0.0259 -5.205165,0.21039 0.253654,0.66101 5.00377,7.37965 5.217455,7.37965 0.09249,0 0.740714,-0.80644 1.440499,-1.79209 z m 4.866822,-7.74723 c 0.342041,-0.0757 0.637988,-0.48262 2.006839,-2.75936 1.87336,-3.11587 4.830609,-8.40406 4.830609,-8.63817 0,-0.30676 -3.325866,-6.22286 -5.455566,-9.70444 -0.801562,-1.31037 -1.063954,-1.6332 -1.385924,-1.70518 -0.518144,-0.11583 -12.081686,-0.11583 -12.605104,0 -0.342041,0.0757 -0.637988,0.48261 -2.006838,2.75936 -1.873361,3.11587 -4.830609,8.40406 -4.830609,8.63816 0,0.30899 3.486205,6.50888 5.511194,9.80114 0.791419,1.28671 1.036322,1.58308 1.347344,1.63048 0.621259,0.0947 12.151832,0.0745 12.588055,-0.022 z m -10.422187,-6.36189 c -0.254732,-0.0734 -0.770231,-0.43143 -1.145554,-0.79552 -1.012349,-0.98205 -1.25667,-2.172 -0.698667,-3.40283 0.499836,-1.10252 1.313684,-1.7212 2.51735,-1.91368 0.322942,-0.0516 0.623097,-0.18752 0.66701,-0.30195 0.04391,-0.11444 -0.02507,-0.50081 -0.153295,-0.85859 -0.444959,-1.24156 -0.205689,-2.28609 0.749493,-3.27189 0.737208,-0.76083 1.523471,-1.0376 2.589995,-0.91169 1.797407,0.21219 3.132198,2.15324 2.620292,3.8104 -0.09616,0.3113 -0.184523,0.75026 -0.19636,0.97546 -0.02002,0.38084 0.02761,0.42084 0.681259,0.57216 1.314797,0.30438 1.947115,0.79511 2.447926,1.89978 0.510033,1.12502 0.334344,2.24316 -0.506872,3.22594 -1.257221,1.46878 -3.143049,1.5239 -4.611816,0.1348 -0.401364,-0.37959 -0.791951,-0.69017 -0.867972,-0.69017 -0.07602,0 -0.450773,0.30929 -0.832784,0.68731 -0.940968,0.93114 -1.999276,1.20399 -3.260005,0.84047 z m -4.807715,6.1389 c 0,-0.0351 -0.433125,-0.77835 -0.962501,-1.65153 -0.995101,-1.6414 -2.85047,-4.86428 -3.685358,-6.40168 -0.262382,-0.48316 -0.559592,-0.87847 -0.660466,-0.87847 -0.186433,0 -1.825321,3.28731 -3.216927,6.45258 -0.511966,1.16449 -0.715022,1.7759 -0.611123,1.84011 0.1378,0.0852 1.040383,0.17917 5.411631,0.56362 1.337298,0.11762 3.724744,0.16593 3.724744,0.0754 z m 22.278184,-0.1457 c 1.314202,-0.11325 2.874065,-0.24754 3.466359,-0.29843 0.592297,-0.0509 1.157291,-0.1422 1.255543,-0.20293 0.134831,-0.0833 -0.0059,-0.51812 -0.573785,-1.77292 -1.64246,-3.62907 -3.086404,-6.51164 -3.261212,-6.5104 -0.101268,7.1e-4 -0.500375,0.58282 -0.886905,1.29355 -0.38653,0.71073 -1.391585,2.46534 -2.233456,3.89913 -0.841869,1.43379 -1.685345,2.87571 -1.874388,3.20426 l -0.343715,0.59736 1.031051,-0.002 c 0.567078,-9.9e-4 2.106306,-0.0945 3.420508,-0.20777 z m -32.987742,-1.969 c 0.262697,-0.61845 1.325057,-2.85705 2.360799,-4.97467 1.035742,-2.11763 1.883166,-3.96844 1.883166,-4.11293 0,-0.14449 -0.516472,-1.28978 -1.147716,-2.54509 -0.631244,-1.25532 -1.701508,-3.48415 -2.378366,-4.95296 -0.949736,-2.06098 -1.295589,-2.68059 -1.515141,-2.71448 -0.470205,-0.0726 -4.24655,0.51512 -7.538572,1.17317 -4.112507,0.82206 -4.12636,0.82648 -4.363272,1.39349 -0.779155,1.86478 -2.536296,2.28589 -4.305929,1.03195 -0.190762,-0.13517 -0.472746,-0.078 -1.475842,0.29938 -5.042768,1.89703 -8.054261,4.26616 -8.054261,6.33625 0,2.853 5.372544,5.97683 13.988797,8.13372 3.873503,0.96965 10.31093,2.13312 11.512958,2.08081 0.555735,-0.0242 0.555756,-0.0242 1.033379,-1.14864 z m 42.432449,0.91275 c 6.4191881,-0.93287 13.1228189,-2.63624 17.0158312,-4.32365 3.934229,-1.70529 6.3566281,-3.8603 6.3566281,-5.65499 0,-1.79468 -2.4223991,-3.9497 -6.3566281,-5.65498 -3.0842326,-1.33685 -8.072574,-2.72889 -13.1779612,-3.67742 -3.484285,-0.64735 -6.294855,-1.01797 -6.446684,-0.85011 -0.06603,0.073 -0.549508,1.08149 -1.074397,2.24108 -0.52489,1.15959 -1.577388,3.35694 -2.338886,4.88299 -0.761498,1.52606 -1.384542,2.90239 -1.384542,3.05851 0,0.15612 0.593063,1.46917 1.31792,2.91788 1.189094,2.37655 2.131204,4.37075 3.103508,6.5693 0.404357,0.91432 0.249884,0.8889 2.985211,0.49139 z m -35.799775,-14.14434 c 0.579383,-1.05229 1.734515,-3.05969 2.566958,-4.46089 l 1.513535,-2.54764 -0.528891,-0.0489 c -1.002264,-0.0927 -8.499772,0.52346 -8.690536,0.71423 -0.193131,0.19313 3.620231,8.261 3.903348,8.25825 0.10019,-9.8e-4 0.656203,-0.86273 1.235586,-1.91503 z m 28.617135,-0.57807 c 2.00245,-4.16257 2.64313,-5.67647 2.452207,-5.79447 -0.173416,-0.10718 -0.518022,-0.14304 -4.784552,-0.4979 -2.444459,-0.20332 -4.357247,-0.26673 -4.357247,-0.14445 0,0.0352 0.433124,0.77835 0.9625,1.65154 0.995101,1.64139 2.850471,4.86427 3.685359,6.40167 0.262382,0.48317 0.559067,0.87848 0.659302,0.87848 0.100233,0 0.722328,-1.12269 1.382431,-2.49487 z M -53.7241,433.76161 c 1.236896,-0.11399 3.419033,-0.27891 4.849194,-0.36649 1.992352,-0.122 2.627287,-0.20661 2.715749,-0.36186 0.388454,-0.68173 3.202345,-4.84208 4.623151,-6.83534 l 1.679839,-2.35666 -0.749487,-1.0156 c -2.071068,-2.80639 -5.761213,-7.00199 -8.497999,-9.662 -5.805397,-5.64252 -10.537405,-8.07832 -12.793393,-6.58538 -2.695628,1.78389 -2.235582,9.4696 1.176622,19.65713 0.74797,2.23315 2.078374,5.79374 2.6987,7.22259 l 0.298137,0.68673 0.875292,-0.0879 c 0.481412,-0.0484 1.887299,-0.1812 3.124195,-0.29518 z m 34.529957,-0.70922 c 1.104752,-2.58001 3.349984,-8.9679 3.349984,-9.53101 0,-0.14704 -0.155608,-0.45229 -0.345798,-0.67831 -0.982532,-1.16768 -0.465157,-3.15201 0.989606,-3.79552 0.69771,-0.30863 0.66553,-0.23394 1.051309,-2.44025 0.36857,-2.10791 0.512325,-5.55858 0.287234,-6.89472 -0.231408,-1.37363 -0.87953,-2.65071 -1.580749,-3.11475 -3.277714,-2.16909 -11.341006,3.72295 -20.141811,14.7181 -0.711594,0.88902 -1.43744,1.814 -1.612992,2.05552 l -0.319184,0.43911 1.875725,2.65446 c 1.031647,1.45996 2.476602,3.57944 3.211009,4.70998 l 1.335285,2.05551 1.54612,0.0949 c 2.400675,0.14728 6.781433,0.49844 7.871157,0.63096 0.541142,0.0658 1.226425,0.11071 1.522851,0.0998 0.528565,-0.0195 0.547076,-0.0388 0.960254,-1.00373 z m -14.270223,-0.14012 c -0.253653,-0.66101 -5.00377,-7.37965 -5.217455,-7.37965 -0.229332,0 -5.273612,7.14899 -5.273612,7.47401 0,0.0638 2.378655,0.11604 5.285902,0.11604 4.635921,0 5.275975,-0.0259 5.205165,-0.2104 z"
           id="path2866" />
        <path
           inkscape:connector-curvature="0"
           style="fill:#8bc432"
           d="m -61.760526,488.44011 c -1.626537,-0.50859 -2.767677,-1.85637 -3.344532,-3.95016 -0.317064,-1.15084 -0.429743,-4.17001 -0.228474,-6.12188 0.529429,-5.13431 2.50002,-11.9076 5.945917,-20.4372 0.156155,-0.38653 0.461469,-1.08229 0.678475,-1.54612 0.217006,-0.46384 0.755786,-1.63397 1.197287,-2.6003 0.441502,-0.96632 1.395298,-2.94226 2.119547,-4.39098 0.724247,-1.44871 1.316815,-2.76176 1.316815,-2.91788 0,-0.15612 -0.623044,-1.53245 -1.384542,-3.05851 -0.761498,-1.52605 -1.813997,-3.7234 -2.338886,-4.88299 -0.52489,-1.15959 -1.008729,-2.16843 -1.075195,-2.24188 -0.06647,-0.0734 -0.12085,-0.21967 -0.12085,-0.32495 0,-0.10529 -0.151242,-0.51958 -0.336092,-0.92065 -0.530884,-1.15186 -1.999352,-4.98941 -2.771707,-7.2433 -1.676785,-4.89323 -2.883723,-9.83082 -3.231561,-13.22033 -0.193592,-1.88647 -0.09055,-4.96865 0.200929,-6.01007 0.960191,-3.43069 3.247698,-4.83759 6.52006,-4.01008 3.134424,0.79263 6.681073,3.28374 11.435225,8.03194 2.754292,2.75084 4.273842,4.44983 6.9201,7.73727 0.777853,0.96632 1.487519,1.75695 1.577037,1.75695 0.08952,0 0.68919,-0.66413 1.332602,-1.47584 4.632093,-5.84372 9.992162,-11.1754 13.856263,-13.78287 4.973299,-3.35595 8.90472,-3.2974 10.672046,0.15894 0.708381,1.38537 0.841487,2.23221 0.826899,5.26083 -0.01154,2.39647 -0.0692,3.12025 -0.390891,4.90683 l -0.377351,2.0957 0.33896,0.36404 c 0.516836,0.55506 0.654421,0.91185 0.654421,1.69705 0,1.11528 -0.523305,1.86843 -1.709937,2.46096 l -0.565061,0.28215 -0.88316,2.67057 c -0.866277,2.61952 -1.209294,3.57399 -2.24783,6.25476 -0.739949,1.91003 -1.031606,2.6108 -1.552595,3.73047 -0.253263,0.5443 -0.79139,1.71443 -1.195838,2.6003 -0.404448,0.88587 -1.328425,2.79598 -2.053281,4.24469 -0.724857,1.44872 -1.31792,2.7618 -1.31792,2.91795 0,0.15616 0.602108,1.48688 1.338019,2.95715 0.735911,1.47027 1.786193,3.66759 2.333963,4.88293 0.547767,1.21534 1.05254,2.26979 1.121717,2.34323 0.06918,0.0734 0.125774,0.21967 0.125774,0.32496 0,0.10528 0.151241,0.51957 0.336091,0.92064 0.530884,1.15186 1.999353,4.98942 2.771707,7.24331 1.676786,4.89323 2.883723,9.83081 3.231561,13.22033 0.193593,1.88646 0.09055,4.96864 -0.200928,6.01007 -0.962723,3.43973 -3.246253,4.83795 -6.540635,4.00488 -2.122024,-0.53662 -4.78542,-2.10265 -7.674217,-4.51231 l -1.54055,-1.28504 -0.731853,0.0914 c -0.96438,0.12049 -1.602542,-0.10429 -2.212346,-0.77927 -0.582897,-0.6452 -0.811507,-1.36438 -0.697681,-2.19483 l 0.08289,-0.60478 -1.534725,-1.72863 c -1.742112,-1.96222 -3.245045,-3.74383 -4.54108,-5.3831 -0.488956,-0.61844 -0.964606,-1.12445 -1.056999,-1.12445 -0.09239,0 -0.694419,0.66413 -1.337831,1.47585 -4.614721,5.8218 -9.9937,11.17644 -13.822969,13.7604 -3.047493,2.05643 -6.018674,2.93531 -7.916791,2.34181 z m 2.841448,-1.8397 c 4.038606,-1.03546 10.505552,-6.68376 17.134308,-14.9653 0.711595,-0.88902 1.438219,-1.81505 1.614721,-2.05785 l 0.320913,-0.44145 -1.683058,-2.36968 c -1.781451,-2.5082 -4.672141,-6.83046 -4.672141,-6.98594 0,-0.11344 1.509506,-0.11936 1.897511,-0.007 0.154612,0.0446 0.62828,0.62703 1.052595,1.2943 1.35054,2.12382 4.389303,6.35137 4.565368,6.35137 0.17777,0 1.828325,-2.26711 3.990921,-5.4817 0.702096,-1.04363 1.344014,-1.97658 1.426485,-2.07321 0.155186,-0.18183 2.106652,-0.25902 2.106652,-0.0833 0,0.15991 -2.915953,4.5158 -4.667876,6.97293 l -1.680292,2.35666 0.749487,1.0156 c 0.982931,1.33191 3.177494,3.97927 5.015199,6.04995 l 1.472181,1.65882 0.724017,-0.0905 c 1.68708,-0.21079 2.992443,1.02833 2.853125,2.70832 l -0.0627,0.75614 0.714977,0.64382 c 1.310334,1.17993 3.058317,2.47817 4.513057,3.35188 2.655089,1.59463 4.796031,2.00638 6.065215,1.16648 2.691721,-1.7813 2.229794,-9.47348 -1.180295,-19.6547 -0.839304,-2.50584 -2.21322,-6.1594 -2.762124,-7.34513 -0.187609,-0.40527 -0.386245,-0.89498 -0.441412,-1.08825 -0.05517,-0.19326 -0.212264,-0.57277 -0.349105,-0.84334 -0.13684,-0.27057 -0.583122,-1.25095 -0.991735,-2.17862 -1.417639,-3.21845 -3.068559,-6.53586 -3.25172,-6.5341 -0.101268,9.8e-4 -0.658501,0.86365 -1.238296,1.91707 -0.579795,1.05342 -1.753914,3.09244 -2.609153,4.53117 l -1.554979,2.61587 -0.87573,0.10898 c -0.481651,0.06 -0.961935,0.06 -1.067299,0 -0.145771,-0.0829 0.19266,-0.74744 1.415585,-2.77955 1.867965,-3.10395 4.832133,-8.40284 4.832133,-8.63816 0,-0.30268 -3.313753,-6.20218 -5.411517,-9.63416 -0.519778,-0.85037 -0.973314,-1.59356 -1.007858,-1.65154 -0.03455,-0.058 0.409162,-0.10542 0.986015,-0.10542 l 1.048823,0 0.839642,1.37043 c 0.99785,1.62864 3.126841,5.31296 3.901007,6.75088 0.34411,0.63913 0.627261,1.00845 0.754345,0.98389 0.220279,-0.0426 2.849092,-5.44068 3.818079,-7.84019 0.32779,-0.81172 0.773968,-1.86809 0.991504,-2.3475 0.565853,-1.24703 0.776539,-1.75427 1.418572,-3.41531 0.791438,-2.04757 2.359777,-6.74724 2.359777,-7.07127 0,-0.14705 -0.155608,-0.45229 -0.345798,-0.67832 -0.982532,-1.16767 -0.465157,-3.15201 0.989606,-3.79552 0.69771,-0.30863 0.66553,-0.23393 1.051309,-2.44025 0.36857,-2.10791 0.512325,-5.55858 0.287234,-6.89472 -0.231408,-1.37363 -0.87953,-2.6507 -1.580749,-3.11475 -3.277714,-2.16909 -11.341006,3.72296 -20.141811,14.71811 -0.711594,0.88902 -1.438219,1.81505 -1.614721,2.05785 l -0.320913,0.44145 1.683059,2.36968 c 1.781451,2.5082 4.67214,6.83046 4.67214,6.98594 0,0.11344 -1.509505,0.11936 -1.897511,0.007 -0.154612,-0.0446 -0.62828,-0.62704 -1.052594,-1.29431 -1.35054,-2.12382 -4.389303,-6.35137 -4.565368,-6.35137 -0.17777,0 -1.828325,2.26711 -3.990921,5.4817 -0.702096,1.04363 -1.344014,1.97658 -1.426486,2.07321 -0.155185,0.18183 -2.106652,0.25902 -2.106652,0.0833 0,-0.15991 2.915953,-4.5158 4.667876,-6.97293 l 1.680292,-2.35666 -0.749487,-1.0156 c -2.071068,-2.80639 -5.761213,-7.00199 -8.497999,-9.662 -5.805397,-5.64252 -10.537405,-8.07832 -12.793393,-6.58538 -2.695628,1.78389 -2.235582,9.4696 1.176622,19.65713 0.839304,2.50584 2.21322,6.1594 2.762123,7.34513 0.187609,0.40527 0.386245,0.89498 0.441412,1.08825 0.05517,0.19326 0.214801,0.57277 0.354743,0.84334 0.139941,0.27057 0.570959,1.21932 0.957815,2.10834 1.300185,2.9879 3.098237,6.60617 3.281963,6.60438 0.10019,-9.8e-4 0.65654,-0.86365 1.236335,-1.91707 0.579795,-1.05342 1.753914,-3.09244 2.609154,-4.53117 l 1.554979,-2.61587 0.875729,-0.10898 c 0.481652,-0.0599 0.961936,-0.0599 1.0673,0 0.145771,0.0829 -0.192661,0.74744 -1.415586,2.77955 -1.86535,3.0996 -4.832132,8.40273 -4.832132,8.63743 0,0.29521 4.621157,8.51135 5.616773,9.98629 0.130457,0.19326 0.37997,0.58858 0.554471,0.87847 l 0.317276,0.52709 -1.051993,0 -1.051991,0 -0.839641,-1.37043 c -0.996704,-1.62677 -3.1266,-5.31251 -3.898753,-6.7467 -0.301751,-0.56047 -0.631936,-1.01903 -0.733746,-1.01903 -0.199553,0 -2.102554,3.84928 -3.370163,6.81698 -0.429262,1.00498 -1.239448,2.90249 -1.800414,4.21669 -2.81308,6.59034 -4.83075,13.52477 -5.415391,18.61189 -0.208191,1.81151 -0.103859,4.88083 0.19868,5.84492 0.70172,2.23614 2.066804,2.9792 4.382403,2.3855 z m 16.017818,-35.26007 c -1.111142,-0.48541 -1.888496,-1.59347 -1.894424,-2.70036 -0.0085,-1.58431 1.001051,-2.78277 2.629031,-3.12101 0.718298,-0.14924 0.926182,-0.56896 0.658116,-1.32875 -0.748976,-2.12282 0.850606,-4.19739 3.092983,-4.01144 1.938551,0.16076 3.20291,2.10204 2.573039,3.95061 -0.282417,0.82885 -0.09444,1.23698 0.640031,1.38958 1.613335,0.3352 2.632117,1.53136 2.632117,3.09039 0,0.6738 -0.255187,1.30342 -0.781084,1.92716 -1.122898,1.33181 -3.339849,1.31313 -4.526282,-0.0381 -0.548164,-0.62432 -1.112664,-0.61134 -1.659077,0.0381 -0.75001,0.8915 -2.310383,1.2643 -3.36445,0.80382 z"
           id="path2868" />
        <path
           inkscape:connector-curvature="0"
           style="fill:#da3129"
           d="m -61.805334,488.40799 c -4.637156,-1.62239 -4.860496,-9.4213 -0.635298,-22.1843 0.56303,-1.70073 1.442134,-4.14868 1.953565,-5.43988 0.511433,-1.29121 0.929877,-2.3852 0.929877,-2.4311 0,-0.0459 0.211311,-0.53909 0.469581,-1.09598 0.258268,-0.5569 0.809349,-1.77154 1.224624,-2.69922 1.214101,-2.71214 4.190022,-8.6418 5.7491,-11.45534 2.254937,-4.06929 4.5426,-7.86529 4.779785,-7.93126 0.118881,-0.0331 0.547935,-0.10222 0.953453,-0.15367 0.564538,-0.0716 0.754842,-0.0478 0.812156,0.10151 0.04117,0.10729 -0.644789,1.394 -1.52435,2.85938 -3.441527,5.73367 -7.288622,13.05929 -9.075844,17.28217 -0.490766,1.15959 -1.037165,2.42459 -1.214223,2.81112 -2.851135,6.22429 -5.339635,14.29173 -6.048208,19.60762 -0.252914,1.89742 -0.252805,4.72801 2.81e-4,5.92179 0.215251,1.01552 0.737329,2.16134 1.15794,2.54137 1.530381,1.38271 4.612286,0.56252 8.420537,-2.24096 3.650834,-2.68759 8.167274,-7.31732 12.640652,-12.95774 l 1.38457,-1.74578 0.535791,0.62133 c 0.294685,0.34174 0.535963,0.68519 0.536172,0.76323 0.0011,0.44283 -5.000611,6.32035 -7.907908,9.29243 -3.712894,3.79563 -6.578172,6.07007 -9.450424,7.50168 -2.451049,1.22167 -4.227996,1.54373 -5.691776,1.0316 z m 23.849294,-19.80691 c -0.805323,-0.8685 -0.809366,-0.84714 0.50698,-2.67909 0.658439,-0.91635 1.88341,-2.67809 2.722159,-3.91499 l 1.524999,-2.2489 0.948271,-0.0416 c 0.770405,-0.0338 0.948272,-0.002 0.948272,0.17071 0,0.35809 -5.529295,8.45131 -6.094319,8.92023 -0.168028,0.13946 -0.271136,0.1012 -0.556362,-0.2064 z m 6.150958,-10.78035 c -0.04456,-0.11612 0.322125,-0.85603 0.83717,-1.68928 3.70694,-5.99713 8.67033,-15.4997 10.512956,-20.12738 0.307813,-0.77306 0.60848,-1.46881 0.668148,-1.54612 0.468061,-0.60642 3.942649,-10.20447 3.942649,-10.89101 0,-0.1721 -0.155608,-0.49785 -0.345798,-0.72387 -0.653293,-0.7764 -0.655784,-2.16303 -0.0054,-3.0157 0.207299,-0.27179 0.671211,-0.63388 1.030916,-0.80466 0.641021,-0.30433 0.657408,-0.32861 0.825185,-1.2224 0.611228,-3.25615 0.774172,-6.68962 0.401022,-8.45009 -0.215251,-1.01552 -0.737329,-2.16135 -1.15794,-2.54137 -1.530381,-1.38271 -4.612286,-0.56253 -8.420537,2.24095 -3.650833,2.68759 -8.167274,7.31733 -12.640652,12.95774 l -1.38457,1.74578 -0.535791,-0.62133 c -0.294685,-0.34173 -0.535962,-0.68518 -0.536172,-0.76322 -0.0011,-0.44283 5.000611,-6.32035 7.907908,-9.29244 3.686993,-3.76915 6.556883,-6.05202 9.422032,-7.49482 3.365735,-1.69487 5.749967,-1.67154 7.495908,0.0734 1.986091,1.98491 2.400308,6.46726 1.171879,12.68118 -0.171025,0.86511 -0.166925,0.89411 0.178831,1.265 0.532179,0.57087 0.669329,0.9218 0.669329,1.71262 0,1.11542 -0.523454,1.86866 -1.710222,2.46096 l -0.565346,0.28215 -0.955339,2.88141 c -0.525436,1.58477 -1.373316,3.93785 -1.884178,5.22905 -0.510861,1.2912 -0.928839,2.38491 -0.928839,2.43046 0,0.0456 -0.182321,0.47549 -0.405159,0.95543 -0.222837,0.47994 -0.89466,1.94787 -1.492939,3.26207 -1.487692,3.26792 -3.881377,8.02766 -5.576255,11.08814 -2.219793,4.00834 -4.512363,7.81106 -4.748736,7.8768 -0.118882,0.0331 -0.547935,0.10221 -0.953453,0.15367 -0.581039,0.0737 -0.754108,0.0498 -0.816592,-0.11308 z m -11.096178,-6.48039 c -1.896005,-0.82828 -2.47042,-3.03072 -1.226907,-4.70425 0.38097,-0.51271 1.567141,-1.14089 2.158453,-1.14309 0.632468,-0.002 0.767646,-0.32325 0.497359,-1.1807 -0.424968,-1.34815 -0.25949,-2.23738 0.598129,-3.21416 1.252915,-1.42699 3.641373,-1.19672 4.735448,0.45654 0.492822,0.7447 0.580242,1.63188 0.263789,2.67705 -0.286639,0.94671 -0.168935,1.25888 0.475566,1.26127 0.591312,0.002 1.777482,0.63038 2.158452,1.14309 0.66494,0.89489 0.856194,2.07616 0.48107,2.97133 -0.912447,2.1774 -3.557627,2.58414 -5.207669,0.80077 -0.284622,-0.30762 -0.63086,-0.55931 -0.769418,-0.55931 -0.138558,0 -0.460797,0.25991 -0.716088,0.57759 -0.255291,0.31767 -0.724443,0.69579 -1.042559,0.84025 -0.67154,0.30496 -1.797211,0.33941 -2.405625,0.0736 z m -3.162518,-18.27654 c 0,-0.3581 5.529295,-8.45131 6.094319,-8.92024 0.168028,-0.13945 0.271136,-0.1012 0.556361,0.20641 0.805324,0.8685 0.809366,0.84714 -0.50698,2.67909 -0.658439,0.91635 -1.88341,2.67809 -2.722159,3.91498 l -1.524999,2.24891 -0.94827,0.0416 c -0.770405,0.0338 -0.948272,0.002 -0.948272,-0.17071 z"
           id="path2870" />
        <path
           inkscape:connector-curvature="0"
           style="fill:#26184f"
           d="m -32.814408,459.72752 c 0.213654,-0.0323 0.529906,-0.0315 0.702782,0.002 0.172876,0.0334 -0.0019,0.0598 -0.388462,0.0587 -0.38653,-0.001 -0.527974,-0.0283 -0.31432,-0.0607 z m -26.738476,-1.37498 c 0,-0.0773 0.06131,-0.23544 0.136251,-0.35139 0.07494,-0.11596 0.136251,-0.14759 0.136251,-0.0703 0,0.0773 -0.06131,0.23543 -0.136251,0.35139 -0.07494,0.11596 -0.136251,0.14758 -0.136251,0.0703 z m 1.973445,0 c 0,-0.0773 0.09039,-0.29869 0.200873,-0.49195 0.11048,-0.19327 0.200873,-0.28814 0.200873,-0.21083 0,0.0773 -0.09039,0.29868 -0.200873,0.49194 -0.11048,0.19327 -0.200873,0.28814 -0.200873,0.21084 z m 26.030781,-0.4488 c 0.136757,-0.0356 0.326508,-0.0333 0.421669,0.005 0.09516,0.0385 -0.01673,0.0677 -0.248649,0.0648 -0.231918,-0.003 -0.309777,-0.0344 -0.17302,-0.07 z m -27.723114,-0.25398 c 0,-0.0773 0.06131,-0.23544 0.136251,-0.3514 0.07494,-0.11595 0.136252,-0.14758 0.136252,-0.0703 0,0.0773 -0.06131,0.23543 -0.136252,0.35139 -0.07494,0.11596 -0.136251,0.14758 -0.136251,0.0703 z m 16.370512,-6.30942 c -1.896005,-0.82828 -2.47042,-3.03072 -1.226907,-4.70425 0.38097,-0.51271 1.567141,-1.14089 2.158453,-1.14309 0.632468,-0.002 0.767646,-0.32325 0.497359,-1.1807 -0.424968,-1.34815 -0.25949,-2.23738 0.598129,-3.21416 1.252915,-1.42699 3.641373,-1.19672 4.735448,0.45654 0.492822,0.7447 0.580242,1.63188 0.263789,2.67705 -0.286639,0.94671 -0.168935,1.25888 0.475566,1.26127 0.591312,0.002 1.777482,0.63038 2.158452,1.14309 0.66494,0.89489 0.856194,2.07616 0.48107,2.97133 -0.912447,2.1774 -3.557627,2.58414 -5.207669,0.80077 -0.284622,-0.30762 -0.63086,-0.55931 -0.769418,-0.55931 -0.138558,0 -0.460797,0.25991 -0.716088,0.57759 -0.255291,0.31767 -0.724443,0.69579 -1.042559,0.84025 -0.67154,0.30496 -1.797211,0.33941 -2.405625,0.0736 z m 24.531392,-15.61738 c 0,-0.0773 0.06131,-0.23543 0.136251,-0.35139 0.07494,-0.11596 0.136251,-0.14758 0.136251,-0.0703 0,0.0773 -0.06131,0.23543 -0.136251,0.35139 -0.07494,0.11596 -0.136251,0.14759 -0.136251,0.0703 z m -1.89278,-0.25203 c 0.05278,-0.13862 0.131377,-0.21663 0.174653,-0.17336 0.04328,0.0433 9e-5,0.15669 -0.09597,0.25204 -0.138817,0.13778 -0.154961,0.12164 -0.07868,-0.0787 z m -25.903873,-0.47788 c 0.136757,-0.0356 0.326509,-0.0333 0.421669,0.005 0.09516,0.0385 -0.01673,0.0677 -0.248648,0.0648 -0.231918,-0.003 -0.309778,-0.0344 -0.173021,-0.07 z m 26.109977,0.0271 c 0,-0.0773 0.06131,-0.23543 0.136251,-0.35139 0.07494,-0.11596 0.136251,-0.14759 0.136251,-0.0703 0,0.0773 -0.06131,0.23543 -0.136251,0.35139 -0.07494,0.11596 -0.136251,0.14759 -0.136251,0.0703 z m 1.967789,0 c 0,-0.0773 0.06131,-0.23543 0.136251,-0.35139 0.07494,-0.11596 0.136251,-0.14759 0.136251,-0.0703 0,0.0773 -0.06131,0.23543 -0.136251,0.35139 -0.07494,0.11596 -0.136251,0.14759 -0.136251,0.0703 z M -45.115023,433.164 c 0.173939,-0.0335 0.458565,-0.0335 0.632504,0 0.173938,0.0335 0.03163,0.0609 -0.316252,0.0609 -0.347877,0 -0.49019,-0.0274 -0.316252,-0.0609 z"
           id="path2872" />
        <path
           transform="matrix(0.14055637,0,0,0.14055637,-91.023883,396.62355)"
           d="m 391.28739,356.84644 c 0,10.56733 -8.56652,19.13385 -19.13386,19.13385 -10.56733,0 -19.13385,-8.56652 -19.13385,-19.13385 0,-10.56734 8.56652,-19.13386 19.13385,-19.13386 10.56734,0 19.13386,8.56652 19.13386,19.13386 z"
           sodipodi:ry="19.133858"
           sodipodi:rx="19.133858"
           sodipodi:cy="356.84644"
           sodipodi:cx="372.15353"
           id="path2874"
           style="fill:#ffffff;fill-opacity:1;stroke:#ffffff;stroke-width:5;stroke-miterlimit:4;stroke-opacity:1;stroke-dasharray:none"
           sodipodi:type="arc" />
      </g>
      <text
         sodipodi:linespacing="125%"
         id="text3296"
         y="481.93576"
         x="149.98143"
         style="font-size:20px;font-style:normal;font-variant:normal;font-weight:normal;font-stretch:normal;line-height:125%;letter-spacing:0px;word-spacing:0px;fill:#000000;fill-opacity:1;stroke:none;font-family:Linux Libertine Display;-inkscape-font-specification:Linux Libertine Display"
         xml:space="preserve"><tspan
           y="481.93576"
           x="149.98143"
           id="tspan3298"
           sodipodi:role="line">UQ Physics Notes</tspan></text>
    </g>
  </g>
</svg>
