<?xml version="1.0" encoding="UTF-8" standalone="no"?>
<!-- Created with Inkscape (http://www.inkscape.org/) -->

<svg
   xmlns:dc="http://purl.org/dc/elements/1.1/"
   xmlns:cc="http://creativecommons.org/ns#"
   xmlns:rdf="http://www.w3.org/1999/02/22-rdf-syntax-ns#"
   xmlns:svg="http://www.w3.org/2000/svg"
   xmlns="http://www.w3.org/2000/svg"
   xmlns:sodipodi="http://sodipodi.sourceforge.net/DTD/sodipodi-0.dtd"
   xmlns:inkscape="http://www.inkscape.org/namespaces/inkscape"
   width="480"
   height="320"
   id="svg2"
   version="1.1"
   inkscape:version="0.48.2 r9819"
   sodipodi:docname="New document 1">
  <defs
     id="defs4" />
  <sodipodi:namedview
     id="base"
     pagecolor="#ffffff"
     bordercolor="#666666"
     borderopacity="1.0"
     inkscape:pageopacity="0.0"
     inkscape:pageshadow="2"
     inkscape:zoom="2"
     inkscape:cx="256.54677"
     inkscape:cy="172.43891"
     inkscape:document-units="px"
     inkscape:current-layer="layer1"
     showgrid="true"
     inkscape:window-width="1680"
     inkscape:window-height="988"
     inkscape:window-x="-8"
     inkscape:window-y="-8"
     inkscape:window-maximized="1">
    <inkscape:grid
       type="xygrid"
       id="grid2985"
       empspacing="5"
       visible="true"
       enabled="true"
       snapvisiblegridlinesonly="true" />
  </sodipodi:namedview>
  <metadata
     id="metadata7">
    <rdf:RDF>
      <cc:Work
         rdf:about="">
        <dc:format>image/svg+xml</dc:format>
        <dc:type
           rdf:resource="http://purl.org/dc/dcmitype/StillImage" />
        <dc:title></dc:title>
      </cc:Work>
    </rdf:RDF>
  </metadata>
  <g
     inkscape:label="Layer 1"
     inkscape:groupmode="layer"
     id="layer1"
     transform="translate(0,-732.36214)">
    <path
       sodipodi:type="arc"
       style="fill:none;stroke:#000000;stroke-width:1.5;stroke-linecap:round;stroke-linejoin:miter;stroke-miterlimit:4;stroke-opacity:1;stroke-dasharray:none;stroke-dashoffset:0"
       id="path2993"
       sodipodi:cx="350"
       sodipodi:cy="210"
       sodipodi:rx="35"
       sodipodi:ry="35"
       d="m 385,210 a 35,35 0 1 1 -70,0"
       transform="translate(0,732.36214)"
       sodipodi:start="0"
       sodipodi:end="3.1415927"
       sodipodi:open="true" />
    <path
       sodipodi:type="arc"
       style="fill:none;stroke:#000000;stroke-width:1.5;stroke-linecap:round;stroke-linejoin:miter;stroke-miterlimit:4;stroke-opacity:1;stroke-dasharray:none;stroke-dashoffset:0"
       id="path2995"
       sodipodi:cx="350"
       sodipodi:cy="210"
       sodipodi:rx="50"
       sodipodi:ry="50"
       d="m 400,210 a 50,50 0 1 1 -100,0"
       transform="translate(0,732.36214)"
       sodipodi:start="0"
       sodipodi:end="3.1415927"
       sodipodi:open="true" />
    <path
       style="fill:none;stroke:#000000;stroke-width:1.5;stroke-linecap:butt;stroke-linejoin:miter;stroke-opacity:1;stroke-miterlimit:4;stroke-dasharray:none"
       d="M 300,210 300,50"
       id="path3765"
       inkscape:connector-curvature="0"
       transform="translate(0,732.36214)" />
    <path
       style="fill:none;stroke:#000000;stroke-width:1.5;stroke-linecap:butt;stroke-linejoin:miter;stroke-opacity:1;stroke-miterlimit:4;stroke-dasharray:none"
       d="M 315,210 315,50"
       id="path3767"
       inkscape:connector-curvature="0"
       transform="translate(0,732.36214)" />
    <path
       style="fill:none;stroke:#000000;stroke-width:1.5;stroke-linecap:butt;stroke-linejoin:miter;stroke-opacity:1;stroke-miterlimit:4;stroke-dasharray:none"
       d="M 385,210 385,50"
       id="path3769"
       inkscape:connector-curvature="0"
       transform="translate(0,732.36214)" />
    <path
       style="fill:none;stroke:#000000;stroke-width:1.5;stroke-linecap:butt;stroke-linejoin:miter;stroke-opacity:1;stroke-miterlimit:4;stroke-dasharray:none"
       d="M 400,210 400,50"
       id="path3771"
       inkscape:connector-curvature="0"
       transform="translate(0,732.36214)" />
    <path
       style="fill:#55ddff;fill-opacity:1;stroke:#000000;stroke-width:0.01767767;stroke-linecap:round;stroke-linejoin:miter;stroke-miterlimit:4;stroke-opacity:1;stroke-dasharray:none;stroke-dashoffset:0"
       d="m 346.51217,259.04036 c -9.96817,-0.80752 -19.11166,-4.35987 -26.94886,-10.46996 -0.82116,-0.64019 -2.44329,-2.07993 -3.60472,-3.19942 -9.12394,-8.7944 -14.29678,-20.1593 -15.06757,-33.10393 l -0.12369,-2.07712 6.74155,0 6.74154,0 0.003,1.4584 c 0.006,2.83161 0.91406,7.44303 2.09664,10.6508 4.10487,11.13453 13.44809,19.55224 24.90362,22.43675 2.93705,0.73955 5.35794,1.0254 8.7054,1.02792 3.52241,0.003 5.13842,-0.18209 8.39689,-0.95987 15.11396,-3.60765 26.05427,-16.4169 27.34505,-32.01645 l 0.21493,-2.59755 6.59353,0 6.59352,0 0,1.30709 c 0,3.88586 -0.90073,9.1128 -2.33052,13.52407 -5.66985,17.49292 -20.48469,30.34823 -38.5049,33.41195 -3.70011,0.62908 -8.45482,0.87471 -11.75565,0.60732 z"
       id="path3777"
       inkscape:connector-curvature="0"
       transform="translate(0,732.36214)" />
    <path
       sodipodi:type="arc"
       style="fill:#000000;fill-opacity:1;stroke:#000000;stroke-width:1;stroke-linecap:round;stroke-linejoin:miter;stroke-miterlimit:4;stroke-opacity:1;stroke-dasharray:none;stroke-dashoffset:0"
       id="path3785"
       sodipodi:cx="350"
       sodipodi:cy="253"
       sodipodi:rx="1"
       sodipodi:ry="1"
       d="m 351,253 a 1,1 0 1 1 -2,0 1,1 0 1 1 2,0 z"
       transform="translate(0,732.36214)" />
    <path
       style="fill:none;stroke:#000000;stroke-width:0.5;stroke-linecap:butt;stroke-linejoin:miter;stroke-opacity:1;stroke-miterlimit:4;stroke-dasharray:2,2;stroke-dashoffset:0"
       d="m 275,253 145,0"
       id="path3787"
       inkscape:connector-curvature="0"
       transform="translate(0,732.36214)" />
  </g>
</svg>
