<?xml version="1.0" encoding="UTF-8" standalone="no"?>
<!-- Created with Inkscape (http://www.inkscape.org/) -->

<svg
   xmlns:dc="http://purl.org/dc/elements/1.1/"
   xmlns:cc="http://creativecommons.org/ns#"
   xmlns:rdf="http://www.w3.org/1999/02/22-rdf-syntax-ns#"
   xmlns:svg="http://www.w3.org/2000/svg"
   xmlns="http://www.w3.org/2000/svg"
   xmlns:sodipodi="http://sodipodi.sourceforge.net/DTD/sodipodi-0.dtd"
   xmlns:inkscape="http://www.inkscape.org/namespaces/inkscape"
   width="128"
   height="128"
   id="svg2676"
   sodipodi:version="0.32"
   inkscape:version="0.48.3.1 r9886"
   version="1.0"
   sodipodi:docname="icon.svg"
   inkscape:output_extension="org.inkscape.output.svg.inkscape">
  <defs
     id="defs2678">
    <inkscape:perspective
       sodipodi:type="inkscape:persp3d"
       inkscape:vp_x="0 : 526.18109 : 1"
       inkscape:vp_y="0 : 1000 : 0"
       inkscape:vp_z="744.09448 : 526.18109 : 1"
       inkscape:persp3d-origin="372.04724 : 350.78739 : 1"
       id="perspective2684" />
    <inkscape:perspective
       id="perspective2767"
       inkscape:persp3d-origin="372.04724 : 350.78739 : 1"
       inkscape:vp_z="744.09448 : 526.18109 : 1"
       inkscape:vp_y="0 : 1000 : 0"
       inkscape:vp_x="0 : 526.18109 : 1"
       sodipodi:type="inkscape:persp3d" />
  </defs>
  <sodipodi:namedview
     id="base"
     pagecolor="#ffffff"
     bordercolor="#666666"
     borderopacity="1.0"
     gridtolerance="10000"
     guidetolerance="10"
     objecttolerance="10"
     inkscape:pageopacity="0.0"
     inkscape:pageshadow="2"
     inkscape:zoom="1.0452675"
     inkscape:cx="-96.992013"
     inkscape:cy="259.8732"
     inkscape:document-units="px"
     inkscape:current-layer="layer1"
     showgrid="false"
     inkscape:window-width="1364"
     inkscape:window-height="766"
     inkscape:window-x="0"
     inkscape:window-y="0"
     inkscape:window-maximized="0"
     inkscape:snap-page="true" />
  <metadata
     id="metadata2681">
    <rdf:RDF>
      <cc:Work
         rdf:about="">
        <dc:format>image/svg+xml</dc:format>
        <dc:type
           rdf:resource="http://purl.org/dc/dcmitype/StillImage" />
        <dc:title></dc:title>
      </cc:Work>
    </rdf:RDF>
  </metadata>
  <g
     inkscape:label="Layer 1"
     inkscape:groupmode="layer"
     id="layer1"
     transform="translate(-26.088943,-587.90433)">
    <rect
       style="fill:none;stroke:none"
       id="rect3437"
       width="512"
       height="512"
       x="0"
       y="0"
       transform="translate(26.088943,203.90433)" />
    <rect
       style="fill:none;stroke:none"
       id="rect4049"
       width="200"
       height="200"
       x="0"
       y="0"
       transform="translate(26.088943,515.90433)" />
    <g
       id="g4389">
      <g
         transform="matrix(0.63999998,0,0,0.63999998,-42.56195,385.87871)"
         id="g4357">
        <path
           inkscape:connector-curvature="0"
           style="fill:#1399dd"
           d="m 159.16353,503.64438 c -3.39023,-1.0665 -5.76873,-3.89277 -6.97108,-8.28341 -0.66086,-2.4133 -0.89572,-8.74446 -0.47622,-12.83751 1.01554,-9.90837 5.06574,-24.44358 10.77546,-38.67063 0.5724,-1.42628 0.97793,-2.65642 0.90117,-2.73365 -0.0768,-0.0772 -2.3006,-0.47687 -4.94186,-0.88811 -37.0485,-5.76827 -56.04383,-16.68644 -50.11409,-28.80465 2.25724,-4.61296 8.99559,-9.29331 18.16888,-12.61984 2.72765,-0.98913 2.74231,-0.99981 3.39831,-2.47736 1.58817,-3.57709 5.28506,-4.59359 8.31562,-2.28646 0.89225,0.67925 1.09563,0.71819 2.34372,0.44873 6.22108,-1.34312 13.88755,-2.81555 17.88756,-3.43551 2.64126,-0.40936 4.86234,-0.80471 4.93573,-0.87854 0.0734,-0.0738 -0.67628,-2.21188 -1.66593,-4.75119 -5.32088,-13.65269 -9.0549,-27.33281 -10.00621,-36.65926 -0.40351,-3.95589 -0.18874,-10.41918 0.41879,-12.60303 2.00135,-7.19411 6.76925,-10.14436 13.5899,-8.40909 6.53315,1.66214 13.9255,6.88597 23.83468,16.84287 5.74083,5.76848 8.90806,9.33123 14.42371,16.22495 1.62129,2.02637 3.10047,3.68431 3.28705,3.68431 0.18659,0 1.43649,-1.39267 2.77757,-3.09482 9.65477,-12.25421 20.82687,-23.43467 28.8809,-28.9025 10.36595,-7.03737 18.56029,-6.91459 22.24397,0.3333 1.47649,2.9051 1.75393,4.68092 1.72352,11.03189 -0.024,5.02536 -0.14424,6.54313 -0.81474,10.28956 l -0.78652,4.39466 0.7065,0.76337 c 1.07725,1.16397 1.36402,1.91215 1.36402,3.55871 0,2.33589 -1.0878,3.91347 -3.55845,5.16058 l -1.17217,0.59168 -1.99838,6.04227 c -1.09912,3.32325 -2.74843,7.96548 -3.66514,10.31607 -2.22885,5.71511 -2.14224,5.23867 -0.9875,5.43169 0.53977,0.0902 3.15666,0.50822 5.81532,0.92888 23.96759,3.79222 41.36182,10.38069 46.98242,17.7957 5.80932,7.66397 1.36056,15.34919 -12.50014,21.59396 -8.39509,3.78231 -21.33408,7.17321 -36.20845,9.48907 -2.64126,0.41124 -4.86233,0.80811 -4.93573,0.88194 -0.0734,0.0738 0.67628,2.21187 1.66594,4.75119 5.32088,13.65269 9.05489,27.33281 10.00621,36.65926 0.40351,3.95589 0.18873,10.41918 -0.4188,12.60303 -2.00662,7.21308 -6.76624,10.14513 -13.63278,8.39817 -4.42298,-1.12527 -9.97435,-4.40922 -15.99553,-9.46225 l -3.21101,-2.6947 -1.52541,0.19175 c -2.01008,0.25267 -3.34021,-0.2187 -4.61124,-1.63413 -1.21495,-1.35297 -1.69144,-2.86108 -1.45419,-4.60253 l 0.17277,-1.2682 -3.19886,-3.62492 c -3.63112,-4.11474 -6.76371,-7.85075 -9.46506,-11.28828 -1.01915,-1.29687 -2.01055,-2.35795 -2.20313,-2.35795 -0.19258,0 -1.44739,1.39266 -2.78847,3.09482 -9.61856,12.20825 -20.83008,23.43684 -28.8115,28.85538 -6.35195,4.3123 -12.54485,6.1553 -16.50113,4.91073 z m 5.92249,-3.85781 c 8.41775,-2.17135 21.89694,-14.01576 35.71339,-31.38203 1.48319,-1.86426 2.99808,-3.80664 3.36642,-4.3164 l 0.6697,-0.92683 -3.29383,-4.65333 c -2.82254,-3.98751 -9.08954,-13.31352 -9.85391,-14.66372 -0.1921,-0.33933 -1.44539,-0.50955 -5.6665,-0.76961 -4.74626,-0.29242 -10.69145,-0.78852 -16.5827,-1.38376 l -1.78799,-0.18066 -1.50349,3.58161 c -5.27954,12.57698 -9.45144,27.29748 -10.60954,37.43564 -0.43394,3.79873 -0.21648,10.23504 0.41411,12.25672 1.46261,4.68915 4.30789,6.24735 9.13434,5.00237 z m 90.59579,-0.5029 c 1.48734,-0.99025 2.83224,-3.64608 3.31937,-6.55489 0.78858,-4.70882 -0.11294,-13.65644 -2.27261,-22.55577 -2.11565,-8.71795 -8.87478,-28.08124 -9.94676,-28.4951 -0.20569,-0.0794 -2.39251,0.0611 -4.8596,0.31214 -4.27907,0.4355 -9.02772,0.80888 -15.76477,1.23957 l -3.07613,0.19665 -3.07381,4.73943 c -1.6906,2.60669 -4.69996,7.03626 -6.68746,9.84351 l -3.61366,5.10407 1.56059,2.12753 c 2.04727,2.79102 6.62232,8.34345 10.4517,12.68452 l 3.06849,3.47852 1.50909,-0.1897 c 3.51641,-0.44201 6.23721,2.15639 5.94683,5.67933 l -0.1307,1.5856 1.49024,1.35333 c 2.59734,2.35874 6.62461,5.37132 9.44042,7.06187 5.55601,3.33572 9.96537,4.16931 12.63877,2.38939 z M 210.25796,455.8042 c 3.8161,-5.40765 7.98944,-11.63148 7.98944,-11.91489 0,-0.13383 -4.95788,-0.24333 -11.01752,-0.24333 -9.66274,0 -10.99682,0.0542 -10.84923,0.44119 0.52869,1.38614 10.42946,15.47503 10.87485,15.47503 0.19278,0 1.54388,-1.6911 3.00246,-3.758 z m 10.14402,-16.24583 c 0.71292,-0.15873 1.32977,-1.01204 4.1829,-5.78634 3.90468,-6.53394 10.06853,-17.62321 10.06853,-18.11412 0,-0.64328 -6.93217,-13.04926 -11.37115,-20.35008 -1.67071,-2.74783 -2.21762,-3.42481 -2.88871,-3.57575 -1.07997,-0.2429 -25.18211,-0.2429 -26.27308,0 -0.71292,0.15873 -1.32977,1.01204 -4.18289,5.78634 -3.90469,6.53394 -10.06854,17.62321 -10.06854,18.11412 0,0.64793 7.26637,13.64902 11.4871,20.55285 1.64957,2.69821 2.16002,3.31969 2.80829,3.41909 1.29491,0.19857 25.32832,0.15632 26.23755,-0.0461 z M 198.6788,426.21758 c -0.53095,-0.15402 -1.60541,-0.90471 -2.38771,-1.6682 -2.11006,-2.05934 -2.6193,-4.55466 -1.45624,-7.13569 1.04182,-2.31197 2.73814,-3.60934 5.24696,-4.01295 0.67312,-0.10829 1.29874,-0.39323 1.39027,-0.63321 0.0915,-0.23997 -0.0523,-1.05017 -0.31952,-1.80044 -0.92744,-2.60353 -0.42872,-4.7939 1.56218,-6.8611 1.53658,-1.59546 3.17541,-2.17584 5.39839,-1.91181 3.74637,0.44497 6.5285,4.51531 5.46152,7.99037 -0.20043,0.65278 -0.3846,1.57326 -0.40927,2.04552 -0.0417,0.79861 0.0575,0.88249 1.41996,1.19981 2.74046,0.63828 4.05841,1.66733 5.10226,3.98381 1.06308,2.35914 0.69688,4.70389 -1.05648,6.76475 -2.62045,3.08001 -6.55112,3.1956 -9.6125,0.28268 -0.83658,-0.796 -1.65068,-1.44728 -1.80914,-1.44728 -0.15845,0 -0.93955,0.64858 -1.73579,1.44128 -1.96128,1.95259 -4.16713,2.52474 -6.79489,1.76246 z m -10.02082,12.87319 c 0,-0.0737 -0.90277,-1.63219 -2.00616,-3.46325 -2.07411,-3.44198 -5.9413,-10.20031 -7.68147,-13.42422 -0.54689,-1.01319 -1.16637,-1.84216 -1.37663,-1.84216 -0.38858,0 -3.80455,6.89346 -6.7051,13.53098 -1.06711,2.44193 -1.49034,3.72404 -1.27378,3.85869 0.28722,0.17859 2.16849,0.37572 11.27957,1.1819 2.78736,0.24664 7.76357,0.34795 7.76357,0.15806 z m 46.43488,-0.30553 c 2.73922,-0.23748 5.99047,-0.5191 7.22501,-0.62581 1.23453,-0.10671 2.41216,-0.2982 2.61695,-0.42554 0.28103,-0.17474 -0.0123,-1.08649 -1.19595,-3.71779 -3.42342,-7.61012 -6.43306,-13.65482 -6.79741,-13.65221 -0.21108,10e-4 -1.04295,1.22215 -1.8486,2.71255 -0.80565,1.49039 -2.90051,5.16978 -4.65524,8.17642 -1.75472,3.00664 -3.5128,6.03032 -3.90682,6.71928 l -0.71642,1.25267 2.14904,-0.004 c 1.18198,-0.002 4.39022,-0.1982 7.12944,-0.43568 z m -68.75704,-4.12898 c 0.54755,-1.29687 2.76185,-5.99119 4.92066,-10.43182 2.15882,-4.44062 3.92512,-8.32176 3.92512,-8.62475 0,-0.30299 -1.07649,-2.70465 -2.3922,-5.33702 -1.31572,-2.63238 -3.54649,-7.30621 -4.95728,-10.38629 -1.97956,-4.32184 -2.70042,-5.62117 -3.15804,-5.69222 -0.98006,-0.15216 -8.85117,1.0802 -15.71281,2.46011 -8.57178,1.72385 -8.60065,1.73313 -9.09445,2.92214 -1.62401,3.91042 -5.28646,4.79348 -8.97494,2.16397 -0.39761,-0.28345 -0.98536,-0.1635 -3.07613,0.62781 -10.51074,3.97805 -16.78766,8.94608 -16.78766,13.28703 0,5.98269 11.1981,12.53334 29.15714,17.0563 8.07362,2.03334 21.49128,4.47313 23.9967,4.36342 1.15833,-0.0507 1.15837,-0.0508 2.15389,-2.40868 z m 88.44284,1.91402 c 13.37965,-1.95621 27.35217,-5.52814 35.46645,-9.06663 8.2002,-3.57596 13.24926,-8.09499 13.24926,-11.85843 0,-3.76343 -5.04906,-8.28246 -13.24926,-11.85842 -6.42853,-2.80336 -16.82583,-5.72245 -27.4671,-7.71151 -7.26236,-1.35747 -13.12049,-2.13466 -13.43695,-1.78265 -0.13763,0.15308 -1.14535,2.26786 -2.23939,4.6995 -1.09404,2.43165 -3.28779,7.03946 -4.87499,10.23958 -1.58721,3.20012 -2.88583,6.08626 -2.88583,6.41365 0,0.32738 1.23613,3.08082 2.74697,6.11876 2.47845,4.98359 4.44211,9.16539 6.4687,13.77573 0.84281,1.91732 0.52084,1.864 6.22214,1.03042 z m -74.61822,-29.66047 c 1.20762,-2.20664 3.61529,-6.41614 5.35037,-9.35444 l 3.15469,-5.34236 -1.10238,-0.10259 c -2.08904,-0.19442 -17.71625,1.0977 -18.11387,1.49773 -0.40254,0.40499 7.54573,17.32322 8.13583,17.31745 0.20883,-0.002 1.36774,-1.80915 2.57536,-4.01579 z m 59.64729,-1.21222 c 4.17375,-8.72885 5.50914,-11.90348 5.11119,-12.15092 -0.36145,-0.22475 -1.07972,-0.29995 -9.97254,-1.0441 -5.09504,-0.42634 -9.0819,-0.55931 -9.0819,-0.30289 0,0.0737 0.90277,1.63219 2.00616,3.46325 2.07411,3.44198 5.94129,10.20031 7.68147,13.42422 0.54689,1.01319 1.16527,1.84216 1.37419,1.84216 0.20892,0 1.50557,-2.35428 2.88143,-5.23172 z m -63.89371,-16.71328 c 2.57808,-0.23902 7.12636,-0.58485 10.10727,-0.76851 4.1527,-0.25584 5.47611,-0.43325 5.6605,-0.75881 0.80966,-1.42958 6.67471,-10.15377 9.63613,-14.33362 l 3.50132,-4.9419 -1.56217,-2.12968 c -4.31677,-5.88498 -12.00822,-14.68309 -17.71256,-20.26108 -12.10031,-11.8323 -21.96333,-16.94013 -26.66553,-13.80945 -5.61856,3.74077 -4.65968,19.85761 2.45245,41.22071 1.55901,4.6829 4.332,12.14941 5.62496,15.14569 l 0.62141,1.44006 1.82439,-0.18441 c 1.00342,-0.10142 3.93374,-0.37997 6.51183,-0.619 z m 71.97151,-1.48721 c 2.30266,-5.41026 6.98244,-18.80557 6.98244,-19.98639 0,-0.30836 -0.32434,-0.94845 -0.72075,-1.42242 -2.04792,-2.4486 -0.96954,-6.60972 2.06265,-7.95915 1.45425,-0.6472 1.38718,-0.49056 2.19127,-5.11718 0.76822,-4.42025 1.06785,-11.65626 0.59869,-14.45813 -0.48233,-2.88048 -1.83323,-5.55849 -3.29479,-6.53159 -6.83181,-4.54855 -23.6383,7.80698 -41.982,30.86367 -1.48319,1.86426 -2.99609,3.80393 -3.36199,4.31038 l -0.66528,0.92082 3.90961,5.56637 c 2.15028,3.0615 5.16203,7.50603 6.69277,9.87675 l 2.78316,4.31038 3.22261,0.1989 c 5.00378,0.30884 14.13469,1.04522 16.40602,1.32311 1.12791,0.13799 2.55626,0.23217 3.17411,0.20929 1.1017,-0.0408 1.14028,-0.0814 2.00148,-2.10481 z m -29.74373,-0.29383 c -0.52869,-1.38613 -10.42946,-15.47502 -10.87485,-15.47502 -0.478,0 -10.9919,14.99132 -10.9919,15.67288 0,0.13384 4.95789,0.24334 11.01752,0.24334 9.66275,0 10.99682,-0.0543 10.84923,-0.4412 z"
           id="path2866" />
        <path
           inkscape:connector-curvature="0"
           style="fill:#8bc432"
           d="m 159.16353,503.64438 c -3.39023,-1.0665 -5.76873,-3.89277 -6.97108,-8.28341 -0.66086,-2.4133 -0.89572,-8.74446 -0.47622,-12.83751 1.10351,-10.76658 5.21085,-24.97007 12.3932,-42.85654 0.32548,-0.81054 0.96185,-2.26953 1.41416,-3.24219 0.45231,-0.97266 1.5753,-3.42641 2.49553,-5.45278 0.92024,-2.02637 2.90825,-6.16989 4.41782,-9.20782 1.50956,-3.03794 2.74466,-5.79138 2.74466,-6.11876 0,-0.32739 -1.29862,-3.21353 -2.88583,-6.41365 -1.5872,-3.20012 -3.78095,-7.80793 -4.87498,-10.23958 -1.09404,-2.43164 -2.10252,-4.54717 -2.24105,-4.70118 -0.13854,-0.154 -0.2519,-0.46064 -0.2519,-0.68142 0,-0.22078 -0.31523,-1.08954 -0.70052,-1.93058 -1.10653,-2.41544 -4.16729,-10.46273 -5.77712,-15.18912 -3.49496,-10.26103 -6.01061,-20.61508 -6.73561,-27.72285 -0.40351,-3.95589 -0.18874,-10.41918 0.41879,-12.60303 2.00135,-7.19411 6.76925,-10.14436 13.5899,-8.40909 6.53315,1.66214 13.9255,6.88597 23.83468,16.84287 5.74083,5.76848 8.90806,9.33123 14.42371,16.22495 1.62129,2.02637 3.10047,3.68431 3.28705,3.68431 0.18659,0 1.43649,-1.39267 2.77757,-3.09482 9.65477,-12.25421 20.82687,-23.43467 28.8809,-28.9025 10.36595,-7.03737 18.56029,-6.91459 22.24397,0.3333 1.47649,2.9051 1.75393,4.68092 1.72352,11.03189 -0.024,5.02536 -0.14424,6.54313 -0.81474,10.28956 l -0.78652,4.39466 0.7065,0.76337 c 1.07725,1.16397 1.36402,1.91215 1.36402,3.55871 0,2.33872 -1.09073,3.91805 -3.56405,5.16058 l -1.17777,0.59168 -1.84079,5.60015 c -1.8056,5.4931 -2.52056,7.49461 -4.6852,13.11614 -1.54229,4.00532 -2.1502,5.47482 -3.23611,7.82276 -0.52788,1.14137 -1.64951,3.59512 -2.49251,5.45277 -0.843,1.85766 -2.76886,5.86314 -4.27969,8.90107 -1.51084,3.03794 -2.74697,5.79144 -2.74697,6.1189 0,0.32747 1.25498,3.11796 2.78886,6.2011 1.53387,3.08314 3.723,7.69089 4.86473,10.23943 1.14172,2.54855 2.19383,4.75973 2.33801,4.91373 0.14419,0.15401 0.26216,0.46065 0.26216,0.68143 0,0.22078 0.31523,1.08954 0.70052,1.93058 1.10653,2.41544 4.16729,10.46273 5.77713,15.18912 3.49496,10.26103 6.0106,20.61508 6.73561,27.72285 0.40351,3.95589 0.18873,10.41918 -0.4188,12.60303 -2.00662,7.21308 -6.76624,10.14513 -13.63278,8.39817 -4.42298,-1.12527 -9.97435,-4.40922 -15.99553,-9.46225 l -3.21101,-2.6947 -1.52541,0.19175 c -2.01008,0.25267 -3.34021,-0.2187 -4.61124,-1.63413 -1.21495,-1.35297 -1.69144,-2.86108 -1.45419,-4.60253 l 0.17277,-1.2682 -3.19886,-3.62492 c -3.63112,-4.11474 -6.76371,-7.85075 -9.46506,-11.28828 -1.01915,-1.29687 -2.01055,-2.35795 -2.20313,-2.35795 -0.19258,0 -1.44739,1.39266 -2.78847,3.09482 -9.61856,12.20825 -20.83008,23.43684 -28.8115,28.85538 -6.35195,4.3123 -12.54485,6.1553 -16.50113,4.91073 z m 5.92249,-3.85781 c 8.41775,-2.17135 21.89694,-14.01576 35.71339,-31.38203 1.48319,-1.86426 2.99771,-3.80614 3.3656,-4.31529 l 0.66888,-0.92572 -3.50803,-4.96917 c -3.71311,-5.25967 -9.73824,-14.32338 -9.73824,-14.64942 0,-0.2379 3.14629,-0.25032 3.95502,-0.0156 0.32226,0.0935 1.30954,1.31489 2.19395,2.71413 2.81496,4.45363 9.14871,13.31873 9.51569,13.31873 0.37053,0 3.81082,-4.75409 8.31836,-11.49504 1.46339,-2.18848 2.80136,-4.14485 2.97325,-4.34749 0.32346,-0.3813 4.39094,-0.54316 4.39094,-0.17473 0,0.33534 -6.07778,9.46958 -9.72935,14.62214 l -3.50227,4.9419 1.56217,2.12968 c 2.04875,2.79302 6.62292,8.34448 10.45329,12.68667 l 3.06849,3.47852 1.50909,-0.18969 c 3.51641,-0.44202 6.23721,2.15639 5.94683,5.67932 l -0.1307,1.5856 1.49024,1.35009 c 2.73116,2.47429 6.37451,5.19668 9.40666,7.02884 5.53406,3.34393 9.99647,4.20736 12.64186,2.44609 5.6104,-3.73536 4.6476,-19.86576 -2.46012,-41.21562 -1.74938,-5.25471 -4.61306,-12.91619 -5.75715,-15.40265 -0.39104,-0.84985 -0.80506,-1.87676 -0.92005,-2.28204 -0.11498,-0.40527 -0.44242,-1.20108 -0.72764,-1.76847 -0.28522,-0.56738 -1.21542,-2.62323 -2.0671,-4.56854 -2.95481,-6.74906 -6.39586,-13.70561 -6.77762,-13.70192 -0.21108,0.002 -1.37253,1.81107 -2.58101,4.02007 -1.20848,2.209 -3.65572,6.48481 -5.43831,9.50181 l -3.24108,5.48545 -1.8253,0.22853 c -1.00392,0.12569 -2.00498,0.12569 -2.22459,0 -0.30384,-0.1739 0.40156,-1.56739 2.95053,-5.82869 3.89344,-6.50894 10.07171,-17.62065 10.07171,-18.11411 0,-0.63472 -6.90692,-13.00588 -11.27933,-20.20271 -1.08339,-1.7832 -2.0287,-3.34167 -2.1007,-3.46325 -0.072,-0.12158 0.85282,-0.22106 2.05517,-0.22106 l 2.18608,0 1.75009,2.87376 c 2.07984,3.41526 6.51734,11.14122 8.13095,14.15651 0.71723,1.34026 1.30741,2.11471 1.57229,2.06321 0.45913,-0.0893 5.93843,-11.40902 7.95811,-16.44078 0.68322,-1.70215 1.61319,-3.91735 2.06661,-4.92266 1.17942,-2.61501 1.61855,-3.67868 2.95676,-7.16187 1.64961,-4.29373 4.91853,-14.14886 4.91853,-14.82836 0,-0.30835 -0.32434,-0.94844 -0.72075,-1.42242 -2.04792,-2.44859 -0.96954,-6.60971 2.06265,-7.95915 1.45425,-0.64719 1.38718,-0.49056 2.19127,-5.11718 0.76822,-4.42024 1.06785,-11.65626 0.59869,-14.45812 -0.48233,-2.88048 -1.83323,-5.5585 -3.29479,-6.53159 -6.83181,-4.54855 -23.6383,7.80698 -41.982,30.86366 -1.48319,1.86426 -2.99771,3.80614 -3.3656,4.31529 l -0.66888,0.92573 3.50803,4.96917 c 3.71312,5.25967 9.73824,14.32338 9.73824,14.64942 0,0.2379 -3.14629,0.25031 -3.95502,0.0156 -0.32226,-0.0935 -1.30954,-1.31489 -2.19394,-2.71414 -2.81496,-4.45363 -9.14872,-13.31873 -9.5157,-13.31873 -0.37053,0 -3.81081,4.7541 -8.31836,11.49505 -1.46339,2.18848 -2.80135,4.14485 -2.97325,4.34748 -0.32346,0.38131 -4.39094,0.54316 -4.39094,0.17473 0,-0.33534 6.07778,-9.46957 9.72935,-14.62214 l 3.50227,-4.9419 -1.56217,-2.12968 c -4.31677,-5.88498 -12.00822,-14.68309 -17.71256,-20.26108 -12.10031,-11.8323 -21.96333,-16.94013 -26.66553,-13.80945 -5.61856,3.74077 -4.65968,19.85761 2.45245,41.22071 1.74938,5.25471 4.61306,12.9162 5.75715,15.40266 0.39104,0.84984 0.80506,1.87676 0.92005,2.28203 0.11498,0.40528 0.44771,1.20109 0.7394,1.76847 0.29168,0.56738 1.19006,2.55691 1.99639,4.42117 2.71,6.26559 6.45772,13.85304 6.84066,13.8493 0.20883,-0.002 1.36844,-1.81108 2.57692,-4.02008 1.20848,-2.209 3.65572,-6.48481 5.43832,-9.50181 l 3.24107,-5.48544 1.8253,-0.22853 c 1.00392,-0.1257 2.00499,-0.1257 2.2246,0 0.30383,0.17389 -0.40157,1.56739 -2.95054,5.82868 -3.88799,6.49983 -10.07171,17.62041 -10.07171,18.11259 0,0.61904 9.63197,17.84817 11.70716,20.94109 0.27191,0.40528 0.79198,1.23425 1.15569,1.84216 l 0.66131,1.10529 -2.19269,0 -2.19269,0 -1.75008,-2.87376 c -2.07745,-3.41133 -6.51684,-11.14027 -8.12625,-14.14775 -0.62895,-1.17529 -1.31716,-2.1369 -1.52937,-2.1369 -0.41593,0 -4.38239,8.07191 -7.0245,14.29512 -0.89472,2.10743 -2.58341,6.08648 -3.75264,8.84235 -5.86336,13.81984 -10.06883,28.36125 -11.28741,39.02887 -0.43394,3.79873 -0.21648,10.23504 0.41411,12.25672 1.46261,4.68915 4.30789,6.24735 9.13434,5.00237 z m 33.38627,-73.93989 c -2.31598,-1.01789 -3.93623,-3.34148 -3.94859,-5.66262 -0.0177,-3.32228 2.08651,-5.83542 5.47974,-6.54472 1.49717,-0.31295 1.93047,-1.1931 1.37173,-2.78636 -1.56111,-4.45152 1.77294,-8.80188 6.44677,-8.41194 4.04056,0.33711 6.67589,4.40795 5.36304,8.28438 -0.58865,1.73809 -0.19684,2.59392 1.33403,2.91392 3.36271,0.70291 5.48618,3.21125 5.48618,6.48051 0,1.41295 -0.5319,2.73326 -1.62803,4.04123 -2.34048,2.79279 -6.96132,2.75361 -9.43423,-0.08 -1.14255,-1.3092 -2.31915,-1.28199 -3.45805,0.08 -1.56326,1.86946 -4.81558,2.65121 -7.01259,1.6856 z"
           id="path2868" />
        <path
           inkscape:connector-curvature="0"
           style="fill:#da3129"
           d="m 159.07013,503.57703 c -9.66532,-3.40213 -10.13083,-19.75634 -1.32416,-46.52016 1.17353,-3.56641 3.00587,-8.69973 4.07185,-11.40737 1.06599,-2.70764 1.93817,-5.00173 1.93817,-5.09798 0,-0.0962 0.44044,-1.13046 0.97875,-2.29826 0.53832,-1.1678 1.68695,-3.71489 2.55251,-5.66021 2.53058,-5.68734 8.73335,-18.12175 11.98297,-24.0217 4.70001,-8.53326 9.46824,-16.49341 9.96261,-16.63175 0.24778,-0.0693 1.14207,-0.21434 1.9873,-0.32224 1.17668,-0.1502 1.57333,-0.10032 1.69279,0.21287 0.0858,0.22497 -1.34394,2.9232 -3.17723,5.99607 -7.17325,12.02343 -15.19183,27.38515 -18.91697,36.24047 -1.02292,2.43165 -2.16179,5.08435 -2.53083,5.8949 -5.94268,13.05224 -11.12952,29.96954 -12.60641,41.1169 -0.52715,3.97886 -0.52692,9.91458 5.9e-4,12.41791 0.44865,2.12954 1.53683,4.53231 2.41352,5.32922 3.1898,2.89953 9.61348,1.17961 17.5511,-4.69925 7.60951,-5.63584 17.02322,-15.34434 26.34717,-27.1722 l 2.88589,-3.66088 1.11676,1.30292 c 0.61422,0.71661 1.11712,1.43681 1.11755,1.60047 0.002,0.92862 -10.42287,13.25369 -16.48261,19.48611 -7.73887,7.95938 -13.71102,12.72884 -19.69772,15.73091 -5.10877,2.56182 -8.8125,3.23718 -11.86349,2.16325 z m 49.70958,-41.53481 c -1.67855,-1.82124 -1.68697,-1.77645 1.05671,-5.61802 1.3724,-1.92157 3.92563,-5.61592 5.67386,-8.20968 l 3.17858,-4.71591 1.9765,-0.0872 c 1.60577,-0.0708 1.97651,-0.004 1.97651,0.35798 0,0.75092 -11.52483,17.72228 -12.70252,18.70561 -0.35022,0.29243 -0.56513,0.21222 -1.15964,-0.43282 z m 12.82057,-22.60625 c -0.0929,-0.2435 0.67142,-1.79509 1.74494,-3.5424 7.72645,-12.57591 18.07174,-32.50265 21.91237,-42.20683 0.64158,-1.6211 1.26827,-3.08009 1.39263,-3.2422 0.97559,-1.27165 8.21775,-21.39865 8.21775,-22.8383 0,-0.3609 -0.32434,-1.04398 -0.72075,-1.51795 -1.36168,-1.6281 -1.36687,-4.53584 -0.0113,-6.32389 0.43208,-0.56992 1.39902,-1.32923 2.14876,-1.68735 1.33609,-0.63819 1.37025,-0.68909 1.71995,-2.56336 1.27399,-6.82809 1.61362,-14.02804 0.83586,-17.71972 -0.44866,-2.12954 -1.53683,-4.53231 -2.41352,-5.32922 -3.18981,-2.89953 -9.61349,-1.17961 -17.5511,4.69925 -7.60951,5.63584 -17.02322,15.34433 -26.34718,27.1722 l -2.88589,3.66088 -1.11676,-1.30292 c -0.61421,-0.71661 -1.11711,-1.43682 -1.11755,-1.60047 -0.002,-0.92862 10.42288,-13.25369 16.48262,-19.48611 7.68487,-7.90386 13.66664,-12.69102 19.63853,-15.71654 7.01528,-3.55413 11.98478,-3.5052 15.62388,0.15384 4.13965,4.16232 5.00301,13.56174 2.44257,26.59225 -0.35647,1.81413 -0.34792,1.87494 0.37274,2.6527 1.10924,1.1971 1.3951,1.93299 1.3951,3.59134 0,2.33902 -1.09104,3.91854 -3.56465,5.16058 l -1.17836,0.59168 -1.99124,6.04227 c -1.09517,3.32325 -2.86243,8.25761 -3.92723,10.96525 -1.06479,2.70764 -1.93599,5.00113 -1.93599,5.09664 0,0.0955 -0.38002,0.99709 -0.84449,2.00352 -0.46446,1.00642 -1.86475,4.08466 -3.11176,6.84052 -3.10083,6.85279 -8.09004,16.83389 -11.62271,23.25169 -4.62676,8.40542 -9.40521,16.37967 -9.89789,16.51753 -0.24778,0.0693 -1.14207,0.21434 -1.9873,0.32223 -1.21107,0.1546 -1.5718,0.10435 -1.70204,-0.23711 z m -23.12799,-13.58929 c -3.95189,-1.73689 -5.14915,-6.35537 -2.55727,-9.86474 0.79406,-1.07515 3.26642,-2.39244 4.49891,-2.39705 1.31827,-0.005 1.60002,-0.67786 1.03665,-2.47592 -0.88577,-2.82705 -0.54085,-4.69176 1.2467,-6.74004 2.61148,-2.99238 7.58979,-2.50951 9.87019,0.95735 1.0272,1.56163 1.20941,3.42203 0.54982,5.61375 -0.59745,1.98522 -0.35211,2.63984 0.99123,2.64486 1.23249,0.005 3.70485,1.3219 4.49891,2.39705 1.38595,1.87655 1.78458,4.35366 1.0027,6.23082 -1.90183,4.56599 -7.41523,5.41892 -10.85445,1.67921 -0.59324,-0.64508 -1.31491,-1.17287 -1.60371,-1.17287 -0.2888,0 -0.96045,0.54504 -1.49256,1.2112 -0.53211,0.66616 -1.50997,1.45906 -2.17303,1.762 -1.3997,0.63949 -3.74596,0.71173 -5.01409,0.15438 z m -6.5917,-38.32566 c 0,-0.75092 11.52482,-17.72228 12.70251,-18.70561 0.35023,-0.29243 0.56514,-0.21222 1.15964,0.43282 1.67855,1.82124 1.68698,1.77644 -1.05671,5.61802 -1.3724,1.92157 -3.92563,5.61592 -5.67385,8.20968 l -3.17859,4.71591 -1.9765,0.0872 c -1.60577,0.0708 -1.9765,0.004 -1.9765,-0.35797 z"
           id="path2870" />
        <path
           inkscape:connector-curvature="0"
           style="fill:#26184f"
           d="m 219.49653,443.43448 c 0.44532,-0.0677 1.10449,-0.0659 1.46482,0.004 0.36033,0.07 -0.004,0.12539 -0.80968,0.12317 -0.80565,-0.002 -1.10047,-0.0595 -0.65514,-0.1272 z m -55.73157,-2.88332 c 0,-0.16211 0.12779,-0.4937 0.28399,-0.73686 0.1562,-0.24317 0.28399,-0.30948 0.28399,-0.14738 0,0.16211 -0.12779,0.4937 -0.28399,0.73687 -0.1562,0.24316 -0.28399,0.30948 -0.28399,0.14737 z m 4.11329,0 c 0,-0.16211 0.18841,-0.62633 0.41869,-1.03161 0.23027,-0.40527 0.41868,-0.60422 0.41868,-0.44211 0,0.1621 -0.18841,0.62633 -0.41868,1.0316 -0.23028,0.40528 -0.41869,0.60423 -0.41869,0.44212 z m 54.2565,-0.94112 c 0.28505,-0.0747 0.68055,-0.0698 0.8789,0.0109 0.19834,0.0807 -0.0349,0.14188 -0.51827,0.13587 -0.48339,-0.006 -0.64567,-0.0721 -0.36063,-0.14679 z m -57.78386,-0.5326 c 0,-0.16211 0.12779,-0.4937 0.28399,-0.73687 0.1562,-0.24316 0.28399,-0.30948 0.28399,-0.14737 0,0.16211 -0.12779,0.4937 -0.28399,0.73686 -0.1562,0.24317 -0.28399,0.30948 -0.28399,0.14738 z m 34.1214,-13.23076 c -3.95189,-1.73689 -5.14915,-6.35537 -2.55727,-9.86474 0.79406,-1.07515 3.26642,-2.39244 4.49891,-2.39705 1.31827,-0.005 1.60002,-0.67786 1.03665,-2.47592 -0.88577,-2.82705 -0.54085,-4.69176 1.2467,-6.74004 2.61148,-2.99238 7.58979,-2.50951 9.87019,0.95735 1.0272,1.56163 1.20941,3.42203 0.54982,5.61375 -0.59745,1.98522 -0.35211,2.63984 0.99123,2.64486 1.23249,0.005 3.70485,1.3219 4.49891,2.39705 1.38595,1.87655 1.78458,4.35366 1.0027,6.23082 -1.90183,4.56599 -7.41523,5.41892 -10.85445,1.67921 -0.59324,-0.64508 -1.31491,-1.17287 -1.60371,-1.17287 -0.2888,0 -0.96045,0.54504 -1.49256,1.2112 -0.53211,0.66616 -1.50997,1.45906 -2.17303,1.762 -1.3997,0.63949 -3.74596,0.71173 -5.01409,0.15438 z m 51.13129,-32.74943 c 0,-0.16211 0.1278,-0.4937 0.28399,-0.73686 0.1562,-0.24317 0.28399,-0.30949 0.28399,-0.14738 0,0.16211 -0.12779,0.4937 -0.28399,0.73687 -0.15619,0.24316 -0.28399,0.30948 -0.28399,0.14737 z m -3.94516,-0.52852 c 0.11002,-0.29068 0.27383,-0.45426 0.36403,-0.36352 0.0902,0.0907 1.9e-4,0.32858 -0.20003,0.52852 -0.28934,0.28893 -0.32298,0.25507 -0.164,-0.165 z m -53.99198,-1.00209 c 0.28504,-0.0747 0.68055,-0.0698 0.87889,0.0109 0.19835,0.0807 -0.0349,0.14188 -0.51826,0.13587 -0.48339,-0.006 -0.64568,-0.0721 -0.36063,-0.14679 z m 54.42157,0.0569 c 0,-0.16211 0.12779,-0.49369 0.28399,-0.73686 0.15619,-0.24316 0.28399,-0.30948 0.28399,-0.14737 0,0.16211 -0.1278,0.4937 -0.28399,0.73686 -0.1562,0.24317 -0.28399,0.30948 -0.28399,0.14737 z m 4.1015,0 c 0,-0.16211 0.12779,-0.49369 0.28399,-0.73686 0.1562,-0.24316 0.28399,-0.30948 0.28399,-0.14737 0,0.16211 -0.12779,0.4937 -0.28399,0.73686 -0.1562,0.24317 -0.28399,0.30948 -0.28399,0.14737 z M 193.8581,387.7312 c 0.36254,-0.0702 0.95579,-0.0702 1.31834,0 0.36254,0.0703 0.0659,0.12774 -0.65917,0.12774 -0.72509,0 -1.02172,-0.0575 -0.65917,-0.12774 z"
           id="path2872" />
        <path
           transform="matrix(0.29296458,0,0,0.29474479,98.1693,311.10633)"
           d="m 391.28739,356.84644 c 0,10.56733 -8.56652,19.13385 -19.13386,19.13385 -10.56733,0 -19.13385,-8.56652 -19.13385,-19.13385 0,-10.56734 8.56652,-19.13386 19.13385,-19.13386 10.56734,0 19.13386,8.56652 19.13386,19.13386 z"
           sodipodi:ry="19.133858"
           sodipodi:rx="19.133858"
           sodipodi:cy="356.84644"
           sodipodi:cx="372.15353"
           id="path2874"
           style="fill:#ffffff;fill-opacity:1;stroke:#ffffff;stroke-width:5;stroke-miterlimit:4;stroke-opacity:1;stroke-dasharray:none"
           sodipodi:type="arc" />
      </g>
      <rect
         transform="translate(26.088943,587.90433)"
         y="0"
         x="0"
         height="128"
         width="128"
         id="rect4368"
         style="fill:none;stroke:none" />
    </g>
  </g>
</svg>
