<?xml version="1.0" encoding="UTF-8" standalone="no"?>
<!-- Created with Inkscape (http://www.inkscape.org/) -->

<svg
   xmlns:dc="http://purl.org/dc/elements/1.1/"
   xmlns:cc="http://creativecommons.org/ns#"
   xmlns:rdf="http://www.w3.org/1999/02/22-rdf-syntax-ns#"
   xmlns:svg="http://www.w3.org/2000/svg"
   xmlns="http://www.w3.org/2000/svg"
   xmlns:sodipodi="http://sodipodi.sourceforge.net/DTD/sodipodi-0.dtd"
   xmlns:inkscape="http://www.inkscape.org/namespaces/inkscape"
   width="306.38892"
   height="208.76535"
   id="svg9845"
   version="1.1"
   inkscape:version="0.48.3.1 r9886"
   sodipodi:docname="pressure21.svg"
   inkscape:export-filename="/home/michael/PHYS3900/physgap/static/pressure2.png"
   inkscape:export-xdpi="90.879997"
   inkscape:export-ydpi="90.879997">
  <sodipodi:namedview
     id="base"
     pagecolor="#ffffff"
     bordercolor="#666666"
     borderopacity="1.0"
     inkscape:pageopacity="0.0"
     inkscape:pageshadow="2"
     inkscape:zoom="1.4"
     inkscape:cx="102.59421"
     inkscape:cy="119.37758"
     inkscape:document-units="px"
     inkscape:current-layer="layer1"
     showgrid="false"
     inkscape:window-width="1364"
     inkscape:window-height="766"
     inkscape:window-x="0"
     inkscape:window-y="0"
     inkscape:window-maximized="0"
     fit-margin-top="0"
     fit-margin-left="0"
     fit-margin-right="0"
     fit-margin-bottom="0" />
  <defs
     id="defs9847">
    <marker
       style="overflow:visible"
       id="Arrow1Sstart"
       refX="0"
       refY="0"
       orient="auto"
       inkscape:stockid="Arrow1Sstart">
      <path
         transform="matrix(0.2,0,0,0.2,1.2,0)"
         style="fill-rule:evenodd;stroke:#000000;stroke-width:1pt"
         d="M 0,0 5,-5 -12.5,0 5,5 0,0 z"
         id="path3855"
         inkscape:connector-curvature="0" />
    </marker>
    <marker
       inkscape:stockid="Arrow1Send"
       orient="auto"
       refY="0"
       refX="0"
       id="Arrow1Send"
       style="overflow:visible">
      <path
         id="path3858"
         d="M 0,0 5,-5 -12.5,0 5,5 0,0 z"
         style="fill-rule:evenodd;stroke:#000000;stroke-width:1pt"
         transform="matrix(-0.2,0,0,-0.2,-1.2,0)"
         inkscape:connector-curvature="0" />
    </marker>
    <marker
       inkscape:stockid="Arrow1Senda"
       orient="auto"
       refY="0"
       refX="0"
       id="Arrow1Senda"
       style="overflow:visible">
      <path
         id="path10558"
         d="M 0,0 5,-5 -12.5,0 5,5 0,0 z"
         style="fill:#ff5555;fill-rule:evenodd;stroke:#ff5555;stroke-width:1pt"
         transform="matrix(-0.2,0,0,-0.2,-1.2,0)"
         inkscape:connector-curvature="0" />
    </marker>
    <marker
       inkscape:stockid="Arrow1Senda"
       orient="auto"
       refY="0"
       refX="0"
       id="Arrow1Senda-8"
       style="overflow:visible">
      <path
         id="path10558-1"
         d="M 0,0 5,-5 -12.5,0 5,5 0,0 z"
         style="fill:#ff5555;fill-rule:evenodd;stroke:#ff5555;stroke-width:1pt"
         transform="matrix(-0.2,0,0,-0.2,-1.2,0)"
         inkscape:connector-curvature="0" />
    </marker>
    <marker
       style="overflow:visible"
       id="Arrow1Sstart8"
       refX="0"
       refY="0"
       orient="auto"
       inkscape:stockid="Arrow1Sstart8">
      <path
         transform="matrix(0.2,0,0,0.2,1.2,0)"
         style="fill:#ff5555;fill-rule:evenodd;stroke:#ff5555;stroke-width:1pt"
         d="M 0,0 5,-5 -12.5,0 5,5 0,0 z"
         id="path11364"
         inkscape:connector-curvature="0" />
    </marker>
    <marker
       inkscape:stockid="Arrow1Senda"
       orient="auto"
       refY="0"
       refX="0"
       id="Arrow1Senda-4"
       style="overflow:visible">
      <path
         id="path10558-3"
         d="M 0,0 5,-5 -12.5,0 5,5 0,0 z"
         style="fill:#ff5555;fill-rule:evenodd;stroke:#ff5555;stroke-width:1pt"
         transform="matrix(-0.2,0,0,-0.2,-1.2,0)"
         inkscape:connector-curvature="0" />
    </marker>
    <marker
       inkscape:stockid="Arrow1Senda"
       orient="auto"
       refY="0"
       refX="0"
       id="Arrow1Senda-1"
       style="overflow:visible">
      <path
         id="path10558-0"
         d="M 0,0 5,-5 -12.5,0 5,5 0,0 z"
         style="fill:#ff5555;fill-rule:evenodd;stroke:#ff5555;stroke-width:1pt"
         transform="matrix(-0.2,0,0,-0.2,-1.2,0)"
         inkscape:connector-curvature="0" />
    </marker>
    <marker
       style="overflow:visible"
       id="Arrow1Sstart8-0"
       refX="0"
       refY="0"
       orient="auto"
       inkscape:stockid="Arrow1Sstart8">
      <path
         transform="matrix(0.2,0,0,0.2,1.2,0)"
         style="fill:#ff5555;fill-rule:evenodd;stroke:#ff5555;stroke-width:1pt"
         d="M 0,0 5,-5 -12.5,0 5,5 0,0 z"
         id="path11364-2"
         inkscape:connector-curvature="0" />
    </marker>
    <marker
       style="overflow:visible"
       id="Arrow1Sstart8-09"
       refX="0"
       refY="0"
       orient="auto"
       inkscape:stockid="Arrow1Sstart8">
      <path
         transform="matrix(0.2,0,0,0.2,1.2,0)"
         style="fill:#ff5555;fill-rule:evenodd;stroke:#ff5555;stroke-width:1pt"
         d="M 0,0 5,-5 -12.5,0 5,5 0,0 z"
         id="path11364-3"
         inkscape:connector-curvature="0" />
    </marker>
  </defs>
  <metadata
     id="metadata9850">
    <rdf:RDF>
      <cc:Work
         rdf:about="">
        <dc:format>image/svg+xml</dc:format>
        <dc:type
           rdf:resource="http://purl.org/dc/dcmitype/StillImage" />
        <dc:title></dc:title>
      </cc:Work>
    </rdf:RDF>
  </metadata>
  <g
     inkscape:label="Layer 1"
     inkscape:groupmode="layer"
     id="layer1"
     transform="translate(-164.03367,-62.494482)">
    <path
       sodipodi:nodetypes="cc"
       style="fill:#ff9955;stroke:#ff5555;stroke-width:5;stroke-linecap:butt;stroke-linejoin:miter;stroke-miterlimit:4;stroke-opacity:1;stroke-dasharray:none;marker-start:url(#Arrow1Sstart8);marker-end:none"
       d="m 447.1938,123.20776 42.34291,-18.33525"
       id="path10367-0"
       inkscape:connector-curvature="0" />
    <path
       sodipodi:type="arc"
       style="fill:#ffdd55;stroke:#000000;stroke-width:1.96461177;stroke-linecap:round;stroke-linejoin:miter;stroke-miterlimit:4;stroke-dasharray:none;stroke-dashoffset:0"
       id="path9853"
       sodipodi:cx="217.1828"
       sodipodi:cy="391.72241"
       sodipodi:rx="83.337585"
       sodipodi:ry="83.337585"
       d="m 300.52039,391.72241 c 0,46.02608 -37.31151,83.33759 -83.33759,83.33759 -46.02608,0 -83.33759,-37.31151 -83.33759,-83.33759 0,-46.02608 37.31151,-83.33758 83.33759,-83.33758 46.02608,0 83.33759,37.3115 83.33759,83.33758 z"
       transform="matrix(1.1189286,0,0,1.1189286,118.17491,-281.46699)" />
    <path
       style="fill:none;stroke:#000000;stroke-width:1.09913015;stroke-linecap:butt;stroke-linejoin:miter;stroke-miterlimit:4;stroke-opacity:1;stroke-dasharray:none"
       d="m 278.99187,163.78175 c -0.40105,8.38465 1.9073,13.73981 1.9073,13.73981 4.71874,2.49815 10.89471,2.91452 10.89471,2.91452 -1.9738,-8.86257 -1.66542,-15.26648 -1.66542,-15.26648 -7.35567,-0.20817 -11.13659,-1.38785 -11.13659,-1.38785 z"
       id="path10363"
       inkscape:connector-curvature="0"
       sodipodi:nodetypes="ccccc" />
    <path
       style="fill:#aad400;fill-opacity:1;stroke:#000000;stroke-width:0.02453415;stroke-linecap:round;stroke-linejoin:miter;stroke-miterlimit:4;stroke-dasharray:none;stroke-dashoffset:0"
       d="m 290.47248,179.71958 c -0.88145,-0.12047 -2.24882,-0.36977 -3.235,-0.58984 -2.06307,-0.46034 -3.79123,-1.03296 -5.4084,-1.79207 l -0.47353,-0.22228 -0.14882,-0.42425 c -0.56552,-1.61086 -1.07708,-3.8566 -1.35411,-5.94442 -0.20597,-1.55296 -0.27603,-2.56796 -0.30742,-4.4586 -0.0292,-1.75606 -0.0281,-1.78389 0.0664,-1.75388 0.25509,0.0809 1.81313,0.38247 2.66654,0.51604 1.92611,0.30145 4.50995,0.55449 6.3666,0.62347 l 0.8955,0.0332 0.001,0.86379 c 0.002,2.11719 0.26498,5.45557 0.64055,8.15042 0.21257,1.52542 0.68641,4.24234 0.86146,4.93982 0.0327,0.1308 -0.011,0.1352 -0.57078,0.0585 l 0,0 z"
       id="path10365"
       inkscape:connector-curvature="0" />
    <path
       sodipodi:nodetypes="cc"
       style="fill:#ff9955;stroke:#ff5555;stroke-width:5;stroke-linecap:butt;stroke-linejoin:miter;stroke-miterlimit:4;stroke-opacity:1;stroke-dasharray:none;marker-end:url(#Arrow1Senda)"
       d="M 224.95665,194.74346 279.5552,173.12394"
       id="path10367"
       inkscape:connector-curvature="0" />
  </g>
</svg>
